<svg id="Capa_1" enable-background="new 0 0 512 512" height="512" viewBox="0 0 512 512" width="512" xmlns="http://www.w3.org/2000/svg"><g><path d="m373.333 70.333c-2.3 0-4.606.065-6.91.196-19.74-42.634-62.718-70.529-110.423-70.529l-10.667 213.334 10.667 202.666 164.333-15v-96.741c20.062-8.372 37.398-21.905 50.586-39.588 15.754-21.124 24.081-46.253 24.081-72.671 0-67.087-54.58-121.667-121.667-121.667z" fill="#e7e7e7"/><path d="m145.577 70.529c-2.304-.13-4.61-.196-6.91-.196-67.087 0-121.667 54.58-121.667 121.667 0 26.418 8.327 51.547 24.081 72.671 13.188 17.683 30.524 31.216 50.585 39.588v96.741l164.334 15v-416c-47.706 0-90.683 27.895-110.423 70.529z" fill="#f0f0f0"/><path d="m177 352h30v64h-30z" fill="#d6d6d9"/><path d="m305 352h30v64h-30z" fill="#c8c8cc"/><g><path d="m256 512h164.333v-111h-164.333l-10.667 57.667z" fill="#32393f"/><path d="m91.667 401h164.333v111h-164.333z" fill="#474f54"/></g></g></svg>