<?xml version="1.0" encoding="iso-8859-1"?>
<!-- Generator: Adobe Illustrator 19.0.0, SVG Export Plug-In . SVG Version: 6.00 Build 0)  -->
<svg version="1.1" id="Capa_1" xmlns="http://www.w3.org/2000/svg" xmlns:xlink="http://www.w3.org/1999/xlink" x="0px" y="0px"
	 viewBox="0 0 512 512" style="enable-background:new 0 0 512 512;" xml:space="preserve">
<g>
	<g>
		<path d="M315.657,333.868c-3.06-2.141-5.903-6.493-8.652-10.701c-2.595-3.972-5.278-8.079-8.651-11.222
			c-7.961-7.419-18.505-11.849-28.207-11.849c-5.136,0-9.934,1.233-14.146,3.606c-4.211-2.373-9.009-3.606-14.146-3.606
			c-9.702,0-20.247,4.429-28.207,11.849c-3.373,3.144-6.056,7.25-8.651,11.222c-2.749,4.208-5.592,8.56-8.652,10.701
			c-3.559,2.49-5.522,6.556-5.252,10.875c0.267,4.292,2.701,8.055,6.51,10.067c7.518,3.971,19.043,8.706,31.258,8.706
			c0.001,0,0,0,0.002,0c10.326,0,19.571-3.419,27.138-9.968c7.568,6.548,16.814,9.968,27.141,9.968
			c12.214,0,23.741-4.734,31.259-8.706c3.809-2.012,6.242-5.775,6.51-10.067C321.179,340.424,319.215,336.358,315.657,333.868z
			 M283.141,348.517c-8.695,0-15.657-3.419-21.284-10.452c-1.423-1.779-3.578-2.815-5.856-2.815c-2.278,0-4.433,1.036-5.856,2.815
			c-5.626,7.033-12.588,10.452-21.282,10.452c-0.001,0-0.001,0-0.001,0c-7.421,0-14.811-2.498-20.549-5.139
			c3.724-3.56,6.62-7.992,9.242-12.006c2.202-3.37,4.281-6.553,6.32-8.454c5.099-4.751,12.156-7.822,17.98-7.822
			c3.636,0,6.615,1.099,9.108,3.358c2.858,2.592,7.217,2.592,10.075,0c2.493-2.26,5.472-3.358,9.108-3.358
			c5.824,0,12.882,3.07,17.98,7.822c2.039,1.9,4.119,5.083,6.32,8.454c2.623,4.014,5.518,8.446,9.242,12.006
			C297.95,346.019,290.561,348.517,283.141,348.517z"/>
	</g>
</g>
<g>
	<g>
		<path d="M338.334,274.64c-4.142,0-7.5,3.358-7.5,7.5v16.009c0,4.142,3.358,7.5,7.5,7.5c4.142,0,7.5-3.358,7.5-7.5V282.14
			C345.834,277.998,342.476,274.64,338.334,274.64z"/>
	</g>
</g>
<g>
	<g>
		<path d="M349.236,314.18h-21.805c-4.142,0-7.5,3.358-7.5,7.5c0,4.142,3.358,7.5,7.5,7.5h21.805c4.142,0,7.5-3.358,7.5-7.5
			C356.736,317.538,353.378,314.18,349.236,314.18z"/>
	</g>
</g>
<g>
	<g>
		<path d="M173.666,274.64c-4.142,0-7.5,3.358-7.5,7.5v16.009c0,4.142,3.358,7.5,7.5,7.5c4.142,0,7.5-3.358,7.5-7.5V282.14
			C181.166,277.998,177.808,274.64,173.666,274.64z"/>
	</g>
</g>
<g>
	<g>
		<path d="M184.568,314.18h-21.804c-4.142,0-7.5,3.358-7.5,7.5c0,4.142,3.358,7.5,7.5,7.5h21.804c4.142,0,7.5-3.358,7.5-7.5
			C192.068,317.538,188.711,314.18,184.568,314.18z"/>
	</g>
</g>
<g>
	<g>
		<path d="M256,78.916c-4.142,0-7.5,3.358-7.5,7.5v83.715c0,4.142,3.358,7.5,7.5,7.5c4.142,0,7.5-3.358,7.5-7.5V86.416
			C263.5,82.274,260.142,78.916,256,78.916z"/>
	</g>
</g>
<g>
	<g>
		<path d="M180.82,78.916c-4.142,0-7.5,3.358-7.5,7.5v83.715c0,4.142,3.358,7.5,7.5,7.5s7.5-3.358,7.5-7.5V86.416
			C188.32,82.274,184.962,78.916,180.82,78.916z"/>
	</g>
</g>
<g>
	<g>
		<path d="M331.18,78.916c-4.142,0-7.5,3.358-7.5,7.5v83.715c0,4.142,3.357,7.5,7.5,7.5c4.142,0,7.5-3.358,7.5-7.5V86.416
			C338.68,82.274,335.322,78.916,331.18,78.916z"/>
	</g>
</g>
<g>
	<g>
		<circle cx="236.63" cy="472" r="9.192"/>
	</g>
</g>
<g>
	<g>
		<circle cx="313.43" cy="472" r="9.192"/>
	</g>
</g>
<g>
	<g>
		<path d="M426.624,265.018l0.001-146.539c11.373-13.027,17.602-29.593,17.602-46.983C444.226,32.074,412.153,0,372.728,0
			c-23.419,0-45.116,11.523-58.364,30.22C301.117,11.523,279.42,0,256,0c-23.419,0-45.116,11.523-58.364,30.22
			C184.389,11.523,162.692,0,139.272,0C99.848,0,67.774,32.074,67.774,71.498c0,17.39,6.229,33.957,17.603,46.984l-0.001,146.539
			c-10.626,7.627-17.603,20.077-17.603,33.967c0,23.052,18.755,41.807,41.807,41.807c0.015,0,0.03-0.001,0.045-0.001
			c8.341,20.122,21.313,38.108,37.697,52.813c-14.873,6.71-28.084,17.125-38.022,30.18c-13.102,17.211-20.027,37.77-20.027,59.452
			V504.5c0,4.142,3.358,7.5,7.5,7.5h318.453c4.142,0,7.5-3.358,7.5-7.5v-21.264c0-21.682-6.925-42.24-20.026-59.452
			c-9.938-13.055-23.149-23.469-38.022-30.18c16.384-14.705,29.356-32.69,37.697-52.813c0.015,0,0.03,0.001,0.045,0.001
			c23.052,0,41.807-18.754,41.807-41.807C444.227,285.095,437.25,272.645,426.624,265.018z M82.774,71.498
			C82.774,40.345,108.119,15,139.272,15c22.18,0,42.405,13.083,51.525,33.329c2.605,5.783,11.077,5.771,13.677,0.001
			C213.595,28.083,233.82,15,256,15s42.405,13.083,51.525,33.329c2.607,5.788,11.073,5.781,13.677,0.002
			C330.323,28.083,350.548,15,372.728,15c31.153,0,56.498,25.345,56.498,56.498c0,14.552-5.519,28.372-15.539,38.915
			c-1.325,1.394-2.063,3.244-2.063,5.167v76.553H100.376l-0.001-76.554c0-1.923-0.739-3.773-2.063-5.167
			C88.292,99.87,82.774,86.049,82.774,71.498z M82.773,298.987c0-11.238,7.117-21.013,17.08-24.948
			c-0.114,1.115-0.215,2.233-0.302,3.354c-1.059,13.725-0.022,27.499,2.934,40.936c0.522,2.319,1.085,4.631,1.727,6.925
			C91.994,322.761,82.773,311.931,82.773,298.987z M102.504,257.796c-0.041,0.007-0.081,0.017-0.122,0.024
			c-0.033,0.006-0.066,0.014-0.099,0.02c-0.638,0.113-1.274,0.235-1.907,0.378v-21.174h8.585
			C106.245,243.823,104.098,250.749,102.504,257.796z M194.332,458.869V497H162.55v-37.313c0-4.142-3.358-7.5-7.5-7.5
			c-4.142,0-7.5,3.358-7.5,7.5V497h-43.276v-13.764h0c0-35.545,23.018-67.446,56.41-78.827
			c16.795,12.008,35.841,20.623,56.112,25.485c2.299,0.553,4.612,1.068,6.934,1.52l-26.627,21.634
			C195.35,454.472,194.332,456.611,194.332,458.869z M407.727,483.236V497h-43.275v-37.313c0-4.142-3.358-7.5-7.5-7.5
			c-4.142,0-7.5,3.358-7.5,7.5V497h-140.12v-34.56l34.868-28.33c1.8,0.125,3.611,0.214,5.428,0.282
			c25.796,0.964,51.754-3.998,75.242-14.751c9.268-4.244,18.146-9.307,26.445-15.232
			C384.708,415.789,407.727,447.691,407.727,483.236z M396.241,308.108c-0.003,0.018-0.006,0.036-0.009,0.054
			c-6.982,42.13-35.662,77.726-75.106,96.677c-33.098,15.903-72.145,18.943-107.388,8.731
			c-50.986-14.762-89.697-55.502-97.969-105.405c-0.003-0.021-0.007-0.041-0.01-0.062c-2.236-13.732-3.052-28.304,0.357-41.939
			l0.007-0.032c0.02-0.089,0.038-0.179,0.054-0.269c1.826-9.881,4.893-19.555,9.126-28.819h261.393
			c4.234,9.265,7.301,18.938,9.127,28.819c0.017,0.09,0.035,0.179,0.055,0.269l0.006,0.029
			C398.396,279.967,398.53,294.262,396.241,308.108z M100.376,222.043v-14.91h311.248v14.91H100.376z M411.623,237.043v21.174
			c-0.625-0.141-1.256-0.262-1.888-0.375c-0.039-0.006-0.079-0.015-0.119-0.023c-0.041-0.007-0.08-0.017-0.121-0.024
			c-1.594-7.047-3.741-13.973-6.457-20.752H411.623z M407.788,325.254c4.346-15.514,5.9-31.791,4.661-47.85
			c-0.087-1.124-0.189-2.246-0.303-3.365c9.963,3.936,17.079,13.709,17.079,24.948C429.226,311.931,420.006,322.761,407.788,325.254
			z"/>
	</g>
</g>
<g>
</g>
<g>
</g>
<g>
</g>
<g>
</g>
<g>
</g>
<g>
</g>
<g>
</g>
<g>
</g>
<g>
</g>
<g>
</g>
<g>
</g>
<g>
</g>
<g>
</g>
<g>
</g>
<g>
</g>
</svg>
