<svg id="Capa_1" enable-background="new 0 0 512 512" height="512" viewBox="0 0 512 512" width="512" xmlns="http://www.w3.org/2000/svg"><g><path d="m373.333 70.333c-2.3 0-4.606.065-6.91.196-19.74-42.634-62.718-70.529-110.423-70.529-47.706 0-90.683 27.895-110.423 70.529-2.304-.13-4.61-.196-6.91-.196-67.087 0-121.667 54.58-121.667 121.667 0 26.418 8.327 51.547 24.081 72.671 13.188 17.683 30.524 31.216 50.585 39.588v207.741h328.666v-207.741c20.062-8.372 37.398-21.905 50.586-39.588 15.755-21.124 24.082-46.253 24.082-72.671 0-67.087-54.58-121.667-121.667-121.667zm47 200.35v-36.016h-30v166.333h-55.333v-49h-30v49h-98v-49h-30v49h-55.333v-166.333h-30v36.016c-10.261-6.158-19.353-14.315-26.537-23.947-11.861-15.903-18.13-34.831-18.13-54.736 0-50.545 41.122-91.667 91.667-91.667 4.762 0 9.559.371 14.256 1.104l12.366 1.928 4.112-11.821c12.803-36.812 47.604-61.544 86.599-61.544 38.994 0 73.795 24.732 86.599 61.544l4.111 11.821 12.367-1.928c4.697-.732 9.494-1.104 14.256-1.104 50.545 0 91.667 41.122 91.667 91.667 0 19.905-6.269 38.833-18.129 54.735-7.185 9.633-16.277 17.79-26.538 23.948zm-30 211.317h-268.666v-51h268.666z"/></g></svg>