<?xml version="1.0"?>
<svg xmlns="http://www.w3.org/2000/svg" viewBox="0 0 64 64" width="512" height="512"><g id="family-dinner-lunch-breckfast-table"><path d="M59,30a3,3,0,0,0-1,.18V19.82A3.01,3.01,0,0,0,60,17V13a7.008,7.008,0,0,0-7-7H48a3,3,0,0,0,0,6v2.7l-1.83,2.75a.963.963,0,0,0-.05,1.02A.984.984,0,0,0,47,19h1v1a3.009,3.009,0,0,0,3,3h1v3H40a2.98,2.98,0,0,0-2.82,4H26.82A2.98,2.98,0,0,0,24,26H14V23h1a3.009,3.009,0,0,0,3-3V19h1a.984.984,0,0,0,.88-.53.963.963,0,0,0-.05-1.02L18,14.7V12a3,3,0,0,0,0-6H13a7.008,7.008,0,0,0-7,7V30.18A2.98,2.98,0,0,0,2,33V59a3,3,0,0,0,6,0V52h2v7a3,3,0,0,0,5.82,1H19a1,1,0,0,0,1-1V45a3.009,3.009,0,0,0-3-3H14V32h2.18A2.98,2.98,0,0,0,19,36H29V56H26a3,3,0,0,0,0,6H38a3,3,0,0,0,0-6H35V36H45a2.98,2.98,0,0,0,2.82-4H50V42H47a3.009,3.009,0,0,0-3,3V59a1,1,0,0,0,1,1h3.18A3,3,0,0,0,54,59V52h2v7a3,3,0,0,0,6,0V33A3.009,3.009,0,0,0,59,30ZM47,9a1,1,0,0,1,1-1h5a5,5,0,0,1,5,5v4a1,1,0,0,1-1,1H55.41l-.6-.61A3,3,0,0,0,54,12.17V11a1,1,0,0,0-1-1H48A1,1,0,0,1,47,9Zm4,12a1,1,0,0,1-1-1V18a1,1,0,0,0-1-1h-.13l.96-1.45A.967.967,0,0,0,50,15V12h2v1a1,1,0,0,0,1,1,1,1,0,0,1,0,2,.987.987,0,0,0-.92.62,1,1,0,0,0,.21,1.09l2,2A1.033,1.033,0,0,0,55,20h1v6H54V22a1,1,0,0,0-1-1ZM17,17a1,1,0,0,0-1,1v2a1,1,0,0,1-1,1H14V17a1,1,0,0,0-1-1,1,1,0,0,1,0-2,1,1,0,0,0,1-1V12h2v3a.967.967,0,0,0,.17.55L17.13,17ZM8,13a5,5,0,0,1,5-5h5a1,1,0,0,1,0,2H13a1,1,0,0,0-1,1v1.17a3,3,0,0,0,0,5.66V26H8Zm6,46a1,1,0,0,1-2,0V51a1,1,0,0,0-1-1H7a1,1,0,0,0-1,1v8a1,1,0,0,1-2,0V33a1,1,0,0,1,2,0V47a1,1,0,0,0,1,1h6a1,1,0,0,1,1,1Zm3-15a1,1,0,0,1,1,1V58H16V49a3.009,3.009,0,0,0-3-3H8V41h4v2a1,1,0,0,0,1,1ZM13,30a1,1,0,0,0-1,1v8H8V28H24a1,1,0,0,1,0,2ZM38,58a1,1,0,0,1,0,2H26a1,1,0,0,1,0-2Zm-7-2V36h2V56ZM45,34H19a1,1,0,0,1,0-2H45a1,1,0,0,1,0,2Zm-5-4a1,1,0,0,1,0-2H56V39H52V31a1,1,0,0,0-1-1Zm8,19v9H46V45a1,1,0,0,1,1-1h4a1,1,0,0,0,1-1V41h4v5H51A3.009,3.009,0,0,0,48,49ZM60,59a1,1,0,0,1-2,0V51a1,1,0,0,0-1-1H53a1,1,0,0,0-1,1v8a1,1,0,0,1-2,0V49a1,1,0,0,1,1-1h6a1,1,0,0,0,1-1V33a1,1,0,0,1,2,0Z"/></g></svg>
